<svg width="1226" height="1226" viewBox="0 0 1226 1226" fill="none" xmlns="http://www.w3.org/2000/svg">
<circle cx="613" cy="613" r="613" fill="#060606"/>
<g clip-path="url(#clip0_11_18)">
<path d="M402.071 534.466C402.071 546.278 403.347 555.855 405.581 562.879C408.133 569.902 411.324 577.564 415.791 585.864C417.387 588.418 418.025 590.972 418.025 593.207C418.025 596.399 416.11 599.592 411.962 602.784L391.861 616.192C388.989 618.108 386.117 619.066 383.565 619.066C380.374 619.066 377.183 617.469 373.993 614.596C369.526 609.808 365.697 604.7 362.506 599.592C359.315 594.165 356.125 588.099 352.615 580.756C327.727 610.127 296.458 624.812 258.807 624.812C232.005 624.812 210.627 617.15 194.992 601.827C179.358 586.503 171.381 566.071 171.381 540.532C171.381 513.396 180.953 491.368 200.417 474.768C219.88 458.167 245.725 449.867 278.59 449.867C289.438 449.867 300.606 450.824 312.411 452.42C324.217 454.017 336.342 456.571 349.105 459.444V436.139C349.105 411.877 344 394.957 334.108 385.06C323.898 375.164 306.668 370.375 282.099 370.375C270.932 370.375 259.445 371.652 247.64 374.525C235.834 377.398 224.347 380.91 213.18 385.379C208.074 387.614 204.246 388.891 202.012 389.529C199.779 390.168 198.183 390.487 196.907 390.487C192.44 390.487 190.206 387.295 190.206 380.591V364.948C190.206 359.84 190.844 356.009 192.44 353.774C194.035 351.539 196.907 349.305 201.374 347.07C212.541 341.324 225.943 336.535 241.577 332.704C257.212 328.554 273.804 326.638 291.353 326.638C329.322 326.638 357.082 335.258 374.95 352.497C392.499 369.736 401.433 395.914 401.433 431.031V534.466H402.071ZM272.527 582.991C283.057 582.991 293.905 581.076 305.392 577.245C316.878 573.414 327.089 566.39 335.704 556.813C340.809 550.748 344.638 544.043 346.552 536.382C348.467 528.72 349.743 519.462 349.743 508.607V495.199C340.49 492.964 330.599 491.049 320.388 489.772C310.178 488.495 300.287 487.857 290.395 487.857C269.017 487.857 253.383 492.007 242.853 500.626C232.324 509.246 227.219 521.377 227.219 537.339C227.219 552.344 231.048 563.517 239.025 571.179C246.682 579.16 257.85 582.991 272.527 582.991ZM528.743 617.469C523 617.469 519.171 616.512 516.618 614.277C514.066 612.362 511.832 607.892 509.918 601.827L434.936 355.051C433.021 348.666 432.064 344.516 432.064 342.281C432.064 337.174 434.617 334.3 439.722 334.3H470.991C477.053 334.3 481.201 335.258 483.435 337.493C485.987 339.408 487.902 343.878 489.816 349.943L543.421 561.283L593.196 349.943C594.791 343.558 596.706 339.408 599.258 337.493C601.811 335.577 606.278 334.3 612.021 334.3H637.547C643.61 334.3 647.758 335.258 650.31 337.493C652.863 339.408 655.096 343.878 656.373 349.943L706.786 563.837L761.986 349.943C763.9 343.558 766.134 339.408 768.367 337.493C770.92 335.577 775.068 334.3 780.811 334.3H810.485C815.59 334.3 818.462 336.854 818.462 342.281C818.462 343.878 818.143 345.474 817.824 347.389C817.505 349.305 816.866 351.859 815.59 355.37L738.693 602.146C736.779 608.531 734.546 612.681 731.993 614.596C729.44 616.512 725.292 617.789 719.868 617.789H692.428C686.365 617.789 682.218 616.831 679.665 614.596C677.112 612.362 674.879 608.211 673.603 601.827L624.146 395.914L575.009 601.507C573.414 607.892 571.499 612.042 568.946 614.277C566.394 616.512 561.927 617.469 556.184 617.469H528.743ZM938.753 626.089C922.161 626.089 905.569 624.174 889.615 620.343C873.662 616.512 861.218 612.362 852.922 607.573C847.817 604.7 844.307 601.507 843.031 598.634C841.754 595.761 841.116 592.568 841.116 589.695V573.414C841.116 566.71 843.669 563.517 848.455 563.517C850.369 563.517 852.284 563.837 854.198 564.475C856.113 565.113 858.984 566.39 862.175 567.667C873.023 572.456 884.829 576.287 897.273 578.841C910.036 581.395 922.48 582.672 935.243 582.672C955.344 582.672 970.979 579.16 981.828 572.137C992.676 565.113 998.419 554.898 998.419 541.809C998.419 532.87 995.548 525.527 989.804 519.462C984.061 513.396 973.212 507.969 957.578 502.861L911.312 488.495C888.02 481.152 870.79 470.298 860.26 455.932C849.731 441.885 844.307 426.242 844.307 409.642C844.307 396.234 847.179 384.422 852.922 374.206C858.665 363.99 866.323 355.051 875.895 348.028C885.467 340.685 896.316 335.258 909.079 331.427C921.842 327.596 935.243 326 949.282 326C956.302 326 963.64 326.319 970.66 327.277C977.999 328.235 984.699 329.512 991.4 330.789C997.781 332.385 1003.84 333.981 1009.59 335.897C1015.33 337.812 1019.8 339.727 1022.99 341.643C1027.45 344.197 1030.65 346.751 1032.56 349.624C1034.47 352.178 1035.43 355.69 1035.43 360.159V375.164C1035.43 381.868 1032.88 385.379 1028.09 385.379C1025.54 385.379 1021.39 384.102 1015.97 381.548C997.781 373.248 977.36 369.098 954.706 369.098C936.519 369.098 922.161 371.971 912.269 378.037C902.378 384.102 897.273 393.36 897.273 406.449C897.273 415.388 900.464 423.05 906.845 429.116C913.227 435.181 925.032 441.247 941.943 446.674L987.252 461.04C1010.22 468.383 1026.82 478.598 1036.71 491.687C1046.6 504.776 1051.39 519.781 1051.39 536.382C1051.39 550.109 1048.51 562.56 1043.09 573.414C1037.35 584.268 1029.69 593.845 1019.8 601.507C1009.91 609.488 998.1 615.235 984.38 619.385C970.022 623.854 955.025 626.089 938.753 626.089Z" fill="white"/>
<path fill-rule="evenodd" clip-rule="evenodd" d="M999.057 781.241C894.082 858.817 741.565 900 610.426 900C426.64 900 261.041 832.001 135.964 718.989C126.073 710.05 135.007 697.919 146.812 704.942C282.099 783.476 448.975 831.043 621.594 831.043C738.055 831.043 866.004 806.781 983.742 756.979C1001.29 748.998 1016.29 768.472 999.057 781.241Z" fill="#FF9900"/>
<path fill-rule="evenodd" clip-rule="evenodd" d="M1042.77 731.439C1029.37 714.2 954.068 723.139 919.927 727.289C909.717 728.566 908.122 719.627 917.375 712.923C977.36 670.783 1075.95 682.914 1087.44 696.961C1098.93 711.327 1084.25 809.973 1028.09 857.221C1019.48 864.564 1011.18 860.733 1015.01 851.156C1027.77 819.551 1056.17 748.359 1042.77 731.439Z" fill="#FF9900"/>
</g>
<defs>
<clipPath id="clip0_11_18">
<rect width="979" height="574" fill="white" transform="translate(123 326)"/>
</clipPath>
</defs>
</svg>
