<svg width="430" height="430" viewBox="0 0 430 430" fill="none" xmlns="http://www.w3.org/2000/svg">
<ellipse cx="218" cy="224.5" rx="203" ry="203.5" fill="#D9D9D9"/>
<path d="M200.919 0.115715C199.994 0.199769 197.052 0.493958 194.404 0.704093C133.329 6.20964 76.1222 39.1589 39.8895 89.8015C19.7136 117.96 6.80938 149.9 1.93353 183.732C0.210166 195.542 0 199.03 0 215.042C0 231.054 0.210166 234.543 1.93353 246.352C13.6188 327.086 71.0782 394.918 149.008 420.05C162.963 424.547 177.674 427.615 194.404 429.464C200.919 430.179 229.081 430.179 235.596 429.464C264.473 426.27 288.936 419.125 313.064 406.812C316.762 404.92 317.477 404.416 316.973 403.996C316.636 403.744 300.874 382.604 281.959 357.052L247.576 310.612L204.492 246.857C180.785 211.806 161.282 183.144 161.113 183.144C160.945 183.102 160.777 211.428 160.693 246.016C160.567 306.577 160.525 309.015 159.768 310.444C158.675 312.503 157.835 313.343 156.069 314.268C154.724 314.94 153.547 315.066 147.2 315.066H139.929L137.995 313.848C136.734 313.049 135.809 311.999 135.179 310.78L134.296 308.889L134.38 224.624L134.506 140.318L135.809 138.679C136.482 137.796 137.911 136.662 138.92 136.115C140.643 135.275 141.316 135.191 148.587 135.191C157.162 135.191 158.591 135.527 160.819 137.964C161.45 138.637 184.778 173.772 212.688 216.093C240.598 258.414 278.764 316.201 297.511 344.57L331.558 396.137L333.282 395.002C348.54 385.084 364.68 370.962 377.458 356.253C404.654 325.027 422.182 286.95 428.066 246.352C429.79 234.543 430 231.054 430 215.042C430 199.03 429.79 195.542 428.066 183.732C416.381 102.998 358.922 35.1663 280.992 10.0341C267.247 5.57923 252.62 2.51126 236.227 0.662066C232.192 0.241796 204.408 -0.220502 200.919 0.115715ZM288.936 130.147C290.954 131.156 292.593 133.089 293.182 135.107C293.518 136.199 293.602 159.566 293.518 212.226L293.392 287.791L280.067 267.366L266.701 246.941V192.011C266.701 156.498 266.869 136.536 267.121 135.569C267.794 133.215 269.265 131.366 271.283 130.274C273.006 129.391 273.636 129.307 280.236 129.307C286.456 129.307 287.549 129.391 288.936 130.147Z" fill="black"/>
</svg>
