<svg width="51" height="51" viewBox="0 0 51 51" fill="none" xmlns="http://www.w3.org/2000/svg">
<circle cx="25.5" cy="25.5" r="25.5" fill="#0A0A0A"/>
<path d="M31.358 10.9091H36.5852L33.1761 31.4347C32.8731 33.3002 32.2292 34.9053 31.2443 36.25C30.2689 37.5852 29.0284 38.6127 27.5227 39.3324C26.0265 40.0426 24.3314 40.3977 22.4375 40.3977C20.7235 40.3977 19.2273 40.0947 17.9489 39.4886C16.6705 38.8731 15.7282 37.964 15.1222 36.7614C14.5161 35.5492 14.3598 34.053 14.6534 32.2727H19.8239C19.7102 33.0777 19.767 33.7642 19.9943 34.3324C20.2311 34.9006 20.6098 35.3314 21.1307 35.625C21.661 35.9186 22.3144 36.0653 23.0909 36.0653C23.9527 36.0653 24.715 35.8807 25.3778 35.5114C26.0502 35.142 26.6089 34.6023 27.054 33.892C27.4991 33.1818 27.8116 32.3153 27.9915 31.2926L31.358 10.9091Z" fill="white"/>
</svg>
